<svg width="206" height="41" viewBox="0 0 206 41" fill="none" xmlns="http://www.w3.org/2000/svg">
<g clip-path="url(#clip0_2128_1896)">
<path d="M16.4796 5.2395C17.2402 5.2395 17.6628 5.62288 17.9163 6.77301L22.0997 25.2603L23.4519 6.9008C23.5364 5.75067 23.959 5.2395 24.7196 5.2395H28.3537C29.1565 5.2395 29.6636 5.70807 29.5791 6.986L27.6353 35.654C27.5508 36.8468 27.086 37.3153 26.3254 37.3153H21.17C20.4094 37.3153 19.9868 36.9746 19.691 35.8244L15.1274 17.3798L11.8314 35.7818C11.6623 36.932 11.1553 37.3153 10.3946 37.3153H5.15487C4.39426 37.3153 3.88718 36.8894 3.80267 35.6966L0.168616 7.02859C-0.000409752 5.83587 0.506667 5.2395 1.3518 5.2395H5.40839C6.169 5.2395 6.59156 5.66548 6.71833 6.9008L8.7889 24.9621L12.0849 6.77301C12.2962 5.62288 12.761 5.2395 13.5216 5.2395H16.4796ZM52.6854 35.5263C52.6431 36.5912 52.0093 37.1876 50.9529 37.1876H39.6282C35.1912 37.1876 31.7262 35.6115 31.7685 31.0109C31.8107 27.2198 34.6842 25.0047 40.431 25.0047H45.375L45.5018 22.2359H37.1773C36.0786 22.2359 35.487 21.6395 35.5293 20.4894L35.5715 20.0634C35.6138 18.9559 36.2476 18.4021 37.3041 18.4021H48.0372C51.8825 18.4021 53.4885 19.5522 53.3617 22.2359L52.6854 35.5263ZM44.9525 33.3964L45.2061 28.4551H41.4452C40.5155 28.4551 39.8394 28.9663 39.7127 30.7127C39.5436 32.7574 40.093 33.3964 41.2339 33.3964H44.9525ZM57.6497 19.68C57.6919 18.6151 58.2835 18.0187 59.3399 18.0187H67.4954C68.2983 18.0187 68.8899 18.1465 69.6082 18.6151L71.8901 20.0634C72.862 20.7024 72.9465 21.5117 72.2704 22.4489L70.9182 24.2805C70.2843 25.1751 69.4392 25.3455 68.5518 24.7491L65.7629 22.8322L65.2136 35.6114C65.1713 36.6764 64.5375 37.2728 63.481 37.2728H58.537C57.4384 37.2728 56.8045 36.6764 56.8468 35.5263L57.6497 19.68ZM83.8048 37.1876C77.2551 37.1876 73.7478 34.4187 74.0858 27.7309C74.4661 20.745 78.396 18.5725 85.326 18.5725H87.6501V18.2743L88.1572 9.20106C88.1995 8.09353 88.8333 7.53976 89.8897 7.53976H94.4957C95.5943 7.53976 96.1859 8.13613 96.1437 9.28626L94.876 35.5263C94.8337 36.5912 94.1999 37.1876 93.1435 37.1876H83.8048ZM82.03 28.6681C81.9033 32.4166 83.0019 33.3964 84.6077 33.3964H87.0163L87.4811 22.3637H84.819C83.0442 22.3637 82.2413 23.2156 82.03 28.6681ZM106.57 17.1242C107.669 17.1242 108.261 17.7205 108.218 18.8707L107.585 35.5263C107.542 36.6764 106.908 37.2728 105.852 37.2728H101.246C100.147 37.2728 99.5559 36.6764 99.5981 35.5263L100.359 18.7855C100.401 17.7205 101.035 17.1242 102.091 17.1242H106.57ZM107.162 7.53976C108.261 7.53976 108.852 8.13613 108.81 9.28626L108.683 12.0977C108.641 13.1626 108.049 13.759 106.993 13.759H102.091C100.993 13.759 100.359 13.1626 100.401 12.0125L100.486 9.20106C100.528 8.13613 101.119 7.53976 102.176 7.53976H107.162ZM113.07 19.68C113.112 18.5725 113.746 18.0187 114.803 18.0187H124.268C128.071 18.0187 131.24 19.5096 131.24 23.599C131.24 26.4956 131.029 31.8203 130.818 35.6114C130.775 36.719 130.142 37.2728 129.085 37.2728H125.324C124.226 37.2728 123.676 36.6338 123.719 35.5263L124.352 22.1933H119.958L119.366 35.6114C119.324 36.6764 118.69 37.2728 117.634 37.2728H113.915C112.816 37.2728 112.225 36.6764 112.267 35.5263L113.07 19.68ZM153.363 17.8909C154.461 17.8909 155.053 18.4873 155.053 19.6374C154.926 23.3434 154.63 27.092 154.503 30.7979L154.292 35.6114C154.081 40.212 150.405 40.9787 146.052 40.9787H135.488C134.389 40.9787 133.756 40.3824 133.798 39.2322V38.6785C133.84 37.6135 134.474 37.0172 135.53 37.0172H143.475C145.587 37.0172 146.39 36.1652 146.475 34.3761L146.517 33.5242H143.136C136.587 33.5242 133.587 30.9683 133.84 25.5585C134.094 19.8504 137.305 17.8909 144.235 17.8909H153.363ZM141.784 26.0696C141.784 28.9663 142.756 29.733 144.362 29.733H146.686L146.982 21.6821H144.573C142.798 21.6821 141.784 22.3211 141.784 26.0696Z" fill="white"/>
<path d="M204.753 0C204.753 0 195.972 8.05006 188.907 10.6493C181.842 13.2486 170.948 13.5779 170.948 13.5779C170.948 13.5779 167.06 18.4181 164.874 20.2338C162.688 22.0494 158.799 24.2273 158.799 24.2273V35.9416C158.799 35.9416 161.655 34.7486 163.553 34.8766C165.451 35.0047 167.627 38.9404 170.948 40.2013C174.269 41.4622 186.261 37.203 192.604 32.2143C198.948 27.2256 202.795 21.3821 204.753 15.4416C206.711 9.50098 204.753 0 204.753 0Z" fill="white"/>
</g>
<defs>
<clipPath id="clip0_2128_1896">
<rect width="206" height="41" fill="white"/>
</clipPath>
</defs>
</svg>
